<svg width="26" height="20" viewBox="0 0 26 20" fill="none" xmlns="http://www.w3.org/2000/svg">
<path d="M2.05214 9.01025C2.05214 9.01025 1.54688 10.0846 1.54688 11.3681C1.54688 12.6517 2.05214 13.726 2.05214 13.726" stroke="#80A6FF" stroke-width="1.68431" stroke-linecap="round"/>
<path d="M23.9488 9.01025C23.9488 9.01025 24.4541 10.0846 24.4541 11.3681C24.4541 12.6517 23.9488 13.726 23.9488 13.726" stroke="#80A6FF" stroke-width="1.68431" stroke-linecap="round"/>
<path d="M6.60059 6.06922C6.60059 5.08876 7.39541 4.29395 8.37586 4.29395H17.2885C18.2689 4.29395 19.0638 5.08877 19.0638 6.06922V6.98868H6.60059V6.06922Z" fill="#80A6FF"/>
<rect x="12.3877" y="2.4707" width="0.887334" height="3.10567" fill="#80A6FF"/>
<circle cx="12.83" cy="1.58247" r="1.331" fill="#80A6FF"/>
<path d="M2.2207 8.68951C2.2207 6.69675 3.94034 5.13641 5.92733 5.28784C8.11346 5.45444 10.8615 5.62377 13.0003 5.62377C15.1391 5.62377 17.8872 5.45444 20.0733 5.28784C22.0603 5.13641 23.7799 6.69675 23.7799 8.68951V13.71C23.7799 15.7027 22.0603 17.2631 20.0733 17.1116C17.8872 16.945 15.1391 16.7757 13.0003 16.7757C10.8615 16.7757 8.11346 16.945 5.92733 17.1116C3.94034 17.2631 2.2207 15.7027 2.2207 13.71V8.68951Z" fill="white"/>
<path d="M4.5791 10.6608C4.5791 8.68603 6.27009 7.13353 8.24124 7.25366C9.79412 7.3483 11.5712 7.43198 13.0002 7.43198C14.4291 7.43198 16.2062 7.3483 17.7591 7.25366C19.7302 7.13353 21.4212 8.68603 21.4212 10.6608V11.7378C21.4212 13.7126 19.7302 15.2651 17.7591 15.1449C16.2062 15.0503 14.4291 14.9666 13.0002 14.9666C11.5712 14.9666 9.79411 15.0503 8.24124 15.1449C6.27009 15.2651 4.5791 13.7126 4.5791 11.7378V10.6608Z" fill="#0051FA"/>
<path d="M8.62109 10.3574C8.62109 10.3574 11.29 11.0311 13 11.0311C14.7101 11.0311 17.379 10.3574 17.379 10.3574V12.3785C17.379 12.3785 14.7101 11.7048 13 11.7048C11.29 11.7048 8.62109 12.3785 8.62109 12.3785V10.3574Z" fill="#80A6FF"/>
<ellipse cx="7.94691" cy="11.3677" rx="1.68421" ry="2.02105" fill="white"/>
<ellipse cx="18.0524" cy="11.3677" rx="1.68421" ry="2.02105" fill="white"/>
<path d="M8.4541 19.6202V16.4204H15.0221L8.4541 19.6202Z" fill="white"/>
<path d="M9.7998 16.7573V14.7368H13.504L9.7998 16.7573Z" fill="#0051FA"/>
</svg>
