<svg width="40" height="40" viewBox="0 0 40 40" fill="none" xmlns="http://www.w3.org/2000/svg">
<rect width="40" height="40" rx="10.4" fill="#0051FA"/>
<path d="M7.00137 18.8008C7.00137 18.8008 6.40137 20.0765 6.40137 21.6008C6.40137 23.125 7.00137 24.4008 7.00137 24.4008" stroke="#80A6FF" stroke-width="2" stroke-linecap="round"/>
<path d="M33.0016 18.8008C33.0016 18.8008 33.6016 20.0765 33.6016 21.6008C33.6016 23.125 33.0016 24.4008 33.0016 24.4008" stroke="#80A6FF" stroke-width="2" stroke-linecap="round"/>
<path d="M12.4014 15.3087C12.4014 14.1445 13.3452 13.2007 14.5094 13.2007H25.0934C26.2576 13.2007 27.2014 14.1445 27.2014 15.3087V16.4007H12.4014V15.3087Z" fill="#80A6FF"/>
<rect x="19.2744" y="11.0356" width="1.05401" height="3.68902" fill="#80A6FF"/>
<circle cx="19.8007" cy="9.9814" r="1.58101" fill="#80A6FF"/>
<path d="M7.20117 18.4198C7.20117 16.0535 9.24311 14.2007 11.6025 14.3805C14.1984 14.5784 17.4615 14.7794 20.0012 14.7794C22.5408 14.7794 25.804 14.5784 28.3998 14.3805C30.7592 14.2007 32.8012 16.0535 32.8012 18.4198V24.3812C32.8012 26.7474 30.7592 28.6002 28.3998 28.4204C25.804 28.2226 22.5408 28.0215 20.0012 28.0215C17.4615 28.0215 14.1984 28.2226 11.6025 28.4204C9.24312 28.6002 7.20117 26.7475 7.20117 24.3812V18.4198Z" fill="white"/>
<path d="M10.002 20.7607C10.002 18.4158 12.0099 16.5723 14.3505 16.7149C16.1946 16.8273 18.305 16.9267 20.002 16.9267C21.6989 16.9267 23.8093 16.8273 25.6534 16.7149C27.994 16.5723 30.002 18.4158 30.002 20.7607V22.0401C30.002 24.385 27.994 26.2285 25.6534 26.0858C23.8093 25.9735 21.6989 25.8741 20.002 25.8741C18.305 25.8741 16.1946 25.9735 14.3505 26.0858C12.0099 26.2285 10.002 24.385 10.002 22.0401V20.7607Z" fill="#0051FA"/>
<path d="M14.8008 20.4004C14.8008 20.4004 17.9701 21.2004 20.0008 21.2004C22.0315 21.2004 25.2008 20.4004 25.2008 20.4004V22.8004C25.2008 22.8004 22.0315 22.0004 20.0008 22.0004C17.9701 22.0004 14.8008 22.8004 14.8008 22.8004V20.4004Z" fill="#80A6FF"/>
<ellipse cx="14.001" cy="21.6007" rx="2" ry="2.4" fill="white"/>
<ellipse cx="26.001" cy="21.6007" rx="2" ry="2.4" fill="white"/>
<path d="M14.6016 31.4001V27.6001H22.4016L14.6016 31.4001Z" fill="white"/>
<path d="M16.2021 28.0006V25.6006H20.6021L16.2021 28.0006Z" fill="#0051FA"/>
</svg>
