<svg width="32" height="31" viewBox="0 0 32 31" fill="none" xmlns="http://www.w3.org/2000/svg">
<path d="M9.44137 18.6855L9.38209 18.6322L19.7395 9.97969L5.95572 15.539L0.391711 10.5144C0.23349 10.3714 0.116756 10.1884 0.0538085 9.9847C-0.00913921 9.78095 -0.0159708 9.56401 0.0340334 9.35671C0.0840376 9.14941 0.189026 8.95943 0.337939 8.80679C0.486852 8.65416 0.674176 8.54451 0.880177 8.4894L30.3423 0.62889C30.5446 0.57528 30.7576 0.576208 30.9595 0.631581C31.1614 0.686954 31.345 0.794797 31.4917 0.944146C31.6384 1.09349 31.7429 1.27902 31.7947 1.48187C31.8464 1.68472 31.8435 1.89766 31.7863 2.09903L23.9377 29.4721C23.8823 29.6657 23.7786 29.842 23.6362 29.9844C23.4938 30.1268 23.3175 30.2306 23.1239 30.286C22.9303 30.3414 22.7258 30.3466 22.5296 30.3011C22.3335 30.2555 22.1522 30.1608 22.0028 30.0258L14.3818 23.1446L9.44137 28.0838V18.6855Z" fill="white"/>
</svg>
